PathFileType	4	(X/Y/Z)	C:\Users\WrightLab\Desktop\Jo\P5V211.trc
DataRate	CameraRate	NumFrames	NumMarkers	Units	OrigDataRate	OrigDataStartFrame	OrigNumFrames
100.00	100.00	       21	19	mm	100.00	660	       754
Frame#	Time	Headset_Front			Headset_Back			Headset_Left			Headset_Right			Left_Shoulder			Right_Shoulder			Sternum			C7			Left Elbow			Right Elbow			Left Wrist			Right Wrist			Left ASIS			Right ASIS			S2			Left Knee			Right Knee			Left Ankle			Right Ankle			
		X1	Y1	Z1	X2	Y2	Z2	X3	Y3	Z3	X4	Y4	Z4	X5	Y5	Z5	X6	Y6	Z6	X7	Y7	Z7	X8	Y8	Z8	X9	Y9	Z9	X10	Y10	Z10	X11	Y11	Z11	X12	Y12	Z12	X13	Y13	Z13	X14	Y14	Z14	X15	Y15	Z15	X16	Y16	Z16	X17	Y17	Z17	X18	Y18	Z18	X19	Y19	Z19	

660	6.590	-65.54208	1540.09351	-467.45691	-240.39830	1645.89819	-520.82275							-312.60184	1500.64905	-590.67078	-266.07169	1441.50940	-196.32712	-228.12651	1305.91260	-392.15710	-420.20886	1517.83215	-364.46619	-298.46902	1208.69702	-676.56525	-191.34958	1185.39417	-97.37824	-196.46722	981.48309	-625.41656	24.99748	1072.34583	-147.15732	-199.57532	927.12665	-548.48657	-239.62599	932.98090	-258.90326	-482.43985	971.01947	-450.83093	-161.60905	501.72949	-506.48361	-349.11710	495.20889	-210.27324	-84.05585	96.06781	-435.97491	-428.00162	88.63215	-322.65439	
661	6.600	-70.82381	1542.19604	-473.14102	-247.51859	1646.79248	-523.42041							-319.46127	1500.89319	-592.12195	-267.44724	1441.47192	-198.69870	-232.34041	1306.63391	-395.12570	-423.45566	1517.79370	-364.40683	-306.54962	1208.88013	-677.68726	-191.29153	1185.46216	-100.74932	-205.24188	981.58282	-629.54474	24.34575	1071.91260	-153.46242	-205.84161	927.21674	-551.82428	-240.80974	933.15991	-262.64792	-485.74976	971.10535	-448.94940	-167.10774	502.29657	-509.51324	-349.23248	496.24429	-212.86166	-89.48698	96.07765	-444.42255	-427.78909	88.14431	-322.76535	
662	6.610	-76.15630	1543.70276	-479.75360	-254.35669	1647.43750	-525.89813							-326.03223	1501.47339	-593.15979	-267.64404	1441.48682	-200.58894	-234.94296	1306.42273	-398.72797	-426.06232	1517.52234	-363.32956	-315.53763	1209.60291	-679.30139	-190.44513	1185.31030	-103.20341	-212.90196	982.03595	-634.92664	24.05352	1071.63403	-160.00830	-213.21262	928.72321	-555.27472	-241.51003	933.97205	-266.71210	-489.65375	971.37469	-447.65955	-172.18320	503.25598	-513.63202	-348.73746	495.66248	-215.91911	-95.29675	96.65646	-452.82803	-428.00671	88.01012	-322.74118	
663	6.620	-81.24786	1545.45728	-486.07309	-261.06024	1647.93445	-528.29987							-333.10559	1501.95520	-594.91278	-267.73984	1441.73389	-202.87785	-237.82301	1307.24280	-402.02917	-429.68927	1517.79016	-363.17914	-323.87973	1210.27283	-682.33215	-189.58356	1185.06909	-105.59174	-221.78831	982.03473	-638.53113	23.70569	1070.94263	-166.64661	-220.78912	928.49768	-558.46375	-242.43367	934.79492	-271.09235	-492.82663	971.34753	-446.90735	-177.22028	503.61249	-517.22827	-348.73950	495.11786	-219.31801	-102.29532	96.40304	-461.98245	-428.58524	87.57758	-322.73160	
664	6.630	-86.60342	1547.30103	-491.53241	-267.98383	1648.58276	-530.86292							-340.26471	1502.92786	-596.24329	-268.00583	1442.02063	-204.91557	-241.52913	1307.84375	-405.69687	-431.55316	1517.54651	-362.76233	-331.77231	1211.14038	-682.99579	-189.40279	1184.80347	-108.37424	-229.12445	982.59222	-643.73840	23.91235	1070.32007	-173.23274	-226.94739	929.26190	-562.11151	-243.21275	934.06348	-274.60681	-496.67322	971.67419	-445.53052	-181.99858	504.87619	-523.36334	-347.45453	495.65018	-221.83850	-109.45692	95.89420	-471.37311	-428.52350	87.61981	-322.98550	
665	6.640	-92.35828	1549.36841	-497.56638	-274.61954	1649.21924	-533.01868							-346.70126	1503.12134	-597.41840	-267.99463	1441.98975	-207.61714	-243.19960	1308.59607	-409.41638	-434.79999	1517.75439	-362.47421	-340.69968	1212.17371	-686.61810	-187.70883	1184.49426	-111.88752	-236.70877	982.71149	-647.82227	23.32801	1069.99683	-179.93886	-234.68587	929.28680	-564.73956	-244.01617	934.35931	-278.36829	-502.34445	972.54535	-444.23862	-187.29956	504.48978	-526.76038	-346.43289	495.54269	-225.30988	-116.69819	96.36530	-483.15424	-428.77438	87.43583	-322.72055	
666	6.650	-97.13023	1551.07104	-504.41336	-281.44153	1649.63147	-535.20837							-353.42062	1503.26758	-598.27167	-267.85046	1441.94006	-209.76242	-246.51964	1308.74915	-412.05597	-436.78220	1517.69348	-362.41638	-348.60428	1212.26550	-688.33948	-186.73442	1184.47607	-115.17236	-243.99794	983.40717	-653.30396	23.65439	1069.76001	-186.50095	-241.02605	929.56152	-567.70337	-245.12418	934.47131	-282.18240	-504.98712	971.87469	-442.99603	-192.49664	505.12137	-530.50696	-345.48383	494.70135	-228.07639	-124.91006	95.63799	-492.81024	-428.94522	87.19510	-322.55219	
667	6.660	-102.49204	1552.85315	-510.21936	-287.88693	1650.30347	-537.99084							-359.97321	1503.71277	-600.32373	-267.18576	1442.46484	-213.31032	-247.66312	1309.70386	-414.60510	-439.52280	1517.60486	-362.54330	-355.76242	1211.80286	-689.36584	-184.79819	1184.96387	-118.95995	-251.75446	983.52173	-656.98047	23.51806	1069.45264	-193.45569	-242.94199	929.74982	-570.78577	-246.22752	934.71790	-285.74402	-506.51587	971.38452	-442.21118	-198.13231	505.06616	-534.24310	-345.60254	494.15137	-230.45195	-132.79942	95.72418	-503.83429	-429.07516	87.34614	-322.75378	
668	6.670	-108.06711	1554.39819	-515.86414	-294.39874	1650.93091	-540.38452							-365.92276	1503.80273	-601.36108	-266.37640	1442.71130	-215.37602	-251.07777	1310.03821	-418.15320	-441.89554	1517.84216	-362.69058	-364.35434	1212.84058	-691.87207	-183.36902	1185.01965	-123.23943	-259.40820	983.47644	-661.47150	23.88099	1069.34607	-200.54214	-252.56454	929.56085	-574.35901	-247.38187	934.81049	-289.31763	-509.56702	971.45892	-440.64954	-203.21307	504.22101	-538.50323	-345.00809	493.29404	-234.86151	-142.65575	95.87514	-513.85315	-429.02509	87.16603	-322.57791	
669	6.680	-113.22802	1555.89539	-522.30389	-300.88342	1651.25647	-542.12091							-372.29135	1504.22949	-602.64447	-266.15268	1442.55603	-219.06067	-254.33417	1309.84094	-420.82507	-444.03387	1517.68530	-362.68311	-371.22385	1213.59485	-692.16150	-181.64560	1185.13000	-126.66743	-267.45129	982.93384	-665.80957	23.49499	1069.15955	-207.92145	-259.27237	929.03735	-577.53033	-247.82114	934.89783	-292.48059	-511.89072	970.09491	-440.83057	-209.30156	503.86945	-543.09906	-343.53079	491.81686	-237.27693	-152.68925	95.10782	-524.16827	-429.05939	87.21908	-322.72595	
670	6.690	-118.82002	1556.99280	-528.06775	-307.30090	1651.81128	-544.65198							-378.15353	1504.24915	-603.78943	-266.28970	1442.15112	-222.92200	-257.11548	1310.51941	-424.51663	-445.97226	1517.62439	-363.09369	-379.60190	1213.47522	-694.47650	-180.16859	1185.41943	-131.04147	-273.37085	983.94720	-671.31885	23.90400	1070.35986	-213.79523	-263.15799	930.41064	-581.22546	-249.18430	933.97595	-297.12943	-515.49274	971.55511	-439.70212	-215.74452	503.51706	-548.49945	-343.94958	491.23566	-241.02756	-163.59375	95.68052	-535.06989	-428.98810	87.05646	-322.54645	
671	6.700	-124.24633	1558.43384	-534.34583	-313.37302	1651.98767	-546.42548							-384.15683	1504.87817	-605.12592	-265.32584	1442.59033	-225.85599	-259.70770	1310.70569	-428.57874	-447.74841	1517.63013	-363.55032	-386.41751	1214.23230	-695.75385	-178.00604	1185.49548	-134.97252	-281.06049	984.42255	-675.32727	24.20674	1070.19836	-221.38228	-270.87000	930.15088	-584.72070	-250.28384	934.10980	-300.76859	-519.15063	970.84589	-439.90338	-222.33505	502.76819	-553.18799	-342.58560	490.63678	-244.39307	-174.62767	94.80553	-545.81628	-429.07574	87.20891	-322.72983	
672	6.710	-129.97231	1559.40442	-539.94519	-319.92041	1652.59912	-549.31360							-390.13275	1504.94458	-606.74707	-265.72302	1442.13257	-229.03870	-262.99023	1310.88721	-431.89398	-449.46844	1517.75952	-363.59979	-395.05667	1215.11792	-699.50250	-176.44513	1186.19336	-139.29201	-288.11325	984.30548	-679.72131	24.81776	1070.54468	-228.80341	-273.35794	929.99707	-588.28015	-251.42207	934.47699	-303.79504	-522.48206	971.33197	-438.60480	-229.24684	502.06085	-559.06976	-342.20584	490.56253	-247.16840	-186.18399	94.89539	-556.52570	-429.07513	86.91489	-323.00482	
673	6.720	-135.54227	1561.03577	-547.03308	-325.97058	1652.57886	-551.10352							-395.63016	1505.19812	-608.35382	-264.91861	1442.70386	-233.45836	-265.12350	1311.16980	-435.17688	-451.49033	1517.71936	-364.33517	-402.05203	1215.54688	-701.11517	-173.80846	1186.28357	-143.16687	-295.13876	985.06671	-683.78461	25.64494	1070.51575	-235.88907	-281.25351	929.65820	-591.71320	-252.27916	934.65808	-308.41907	-527.24121	971.71576	-439.62445	-235.91396	501.97009	-565.46771	-341.03699	490.26041	-250.76137	-197.53210	94.09457	-566.83527	-429.25735	87.03442	-322.93018	
674	6.730	-140.87933	1562.30884	-552.98187	-331.76022	1652.70850	-553.13782							-401.11807	1505.59363	-610.11890	-264.12698	1442.95105	-235.97917	-267.93924	1310.87610	-438.07190	-452.92715	1517.54944	-364.65430	-409.02063	1215.00989	-702.38000	-171.22493	1187.00586	-148.37613	-302.51572	985.12305	-688.69836	25.71403	1070.72681	-242.83333	-285.08823	930.67590	-595.87012	-253.78044	933.86426	-310.53455	-528.92194	970.94324	-438.28424	-242.61427	500.90259	-572.62274	-340.28967	489.81369	-253.85823	-211.27936	95.84116	-576.65350	-429.19052	86.86385	-322.75009	
675	6.740	-146.19661	1562.91541	-559.55945	-338.05234	1653.06128	-555.74042							-406.25223	1505.39258	-611.09167	-264.26617	1442.72644	-238.95757	-270.11136	1311.18176	-441.68082	-454.40009	1517.74792	-366.06784	-416.07861	1215.59290	-703.51184	-169.28973	1187.52258	-152.22578	-308.20425	985.80737	-692.82715	25.72573	1070.53845	-250.35675	-291.80646	930.26337	-598.33899	-254.32867	933.56329	-314.28647	-533.69519	971.87183	-438.62930	-250.15038	500.04736	-576.76953	-340.11835	489.56525	-255.94951	-224.72116	95.19145	-586.00677	-429.28433	87.01961	-322.93726	
676	6.750	-151.59869	1563.71265	-566.59210										-411.40793	1505.29956	-612.40918	-264.20319	1443.69763	-242.60759	-271.98663	1311.28552	-444.92413	-455.94748	1517.91333	-366.50781	-423.30460	1216.07324	-705.06250	-166.79053	1188.54004	-157.07652	-316.00098	985.48279	-697.12659	27.54484	1071.36023	-257.50287	-296.44571	930.39490	-601.89508	-254.77185	933.87775	-317.63928	-536.32709	971.26892	-438.21411	-256.93466	499.69519	-583.88470	-339.40378	489.35028	-258.90115	-237.31520	96.23344	-595.77881	-429.21661	86.86095	-322.76065	
677	6.760	-157.04710	1564.78467	-572.71082	-348.91470	1652.88452	-560.34106							-416.33331	1505.54004	-614.24915	-263.36172	1443.51245	-246.10364	-273.92371	1311.90796	-448.74045	-457.84058	1518.16248	-367.36917	-430.18188	1216.31702	-706.74902	-165.63777	1188.92822	-161.47711	-322.56531	986.21918	-700.76111	27.91229	1071.38611	-264.81039	-302.02597	929.81909	-605.55084	-255.57104	933.91010	-321.25186	-538.63275	970.94104	-437.94858	-263.17389	499.49570	-591.33502	-337.79166	489.50253	-260.71725	-250.24440	96.14522	-604.68884	-429.10327	86.90243	-323.01315	
678	6.770	-162.35577	1565.22742	-579.78815	-354.40430	1653.07935	-562.22058							-421.31989	1505.38599	-615.65625	-262.57306	1444.09399	-250.32263	-276.36295	1312.39038	-452.73532	-459.03580	1518.12244	-368.23721	-437.35300	1216.57935	-709.83490	-162.62541	1189.63965	-166.35588	-328.05475	986.25757	-704.61896	28.88293	1072.95959	-270.82666	-307.80759	930.21423	-608.50562	-256.80991	934.12549	-324.92661	-542.34875	970.64325	-437.30643	-268.87347	498.71484	-598.36877	-336.99124	489.69559	-262.83255	-263.99786	95.44454	-613.43591	-429.24133	86.85938	-322.77106	
679	6.780	-167.60597	1565.40906	-585.78259	-359.92657	1652.93506	-565.54681							-425.99057	1505.42627	-617.48871	-262.22479	1444.61584	-253.92004	-278.28824	1312.46191	-456.43329	-460.61087	1518.09521	-368.99448	-444.68210	1217.15601	-713.16833	-160.51787	1190.50464	-171.59155	-335.13757	986.68988	-708.44940	29.39679	1072.96228	-277.45804	-312.44821	930.52942	-611.80023	-257.51828	934.60437	-329.28757	-544.20441	970.44080	-435.73517	-274.84631	499.92267	-607.12885	-336.37061	489.60678	-264.73819	-276.03140	96.47630	-622.09125	-429.20145	87.07533	-323.18625	
680	6.790	-173.19438	1566.24573	-593.33948	-364.66962	1653.01636	-567.57953							-430.92279	1505.38989	-618.66058	-261.92792	1445.09241	-258.10031	-280.56952	1312.57031	-460.08319	-461.86829	1518.53613	-370.60718	-450.05933	1216.55774	-712.18719	-158.50681	1191.24683	-176.83598	-341.47391	987.00079	-712.12988	29.80618	1073.07788	-285.57980	-316.68906	931.66071	-614.04639	-257.93533	935.03589	-333.37482	-546.42316	969.72723	-435.19406	-280.20261	499.89410	-614.43347	-335.52115	489.39026	-266.94009	-292.09714	98.71925	-630.86432	-429.29468	87.02335	-322.94305	
